<svg width="14" height="14" viewBox="0 0 14 14" fill="none" xmlns="http://www.w3.org/2000/svg">
<path d="M3.14286 10.8571H0V12H3.14286V10.8571ZM6.28571 9.71429H4C3.6875 9.71429 3.42857 9.97321 3.42857 10.2857V12.5714C3.42857 12.8839 3.6875 13.1429 4 13.1429H6.28571C6.59821 13.1429 6.85714 12.8839 6.85714 12.5714V10.2857C6.85714 9.97321 6.59821 9.71429 6.28571 9.71429ZM7.71429 6.28571H0V7.42857H7.71429V6.28571ZM2 1.71428H0V2.85714H2V1.71428ZM13.7143 10.8571H7.14286V12H13.7143V10.8571ZM5.14286 0.571428H2.85714C2.54464 0.571428 2.28571 0.830357 2.28571 1.14286V3.42857C2.28571 3.74107 2.54464 4 2.85714 4H5.14286C5.45536 4 5.71429 3.74107 5.71429 3.42857V1.14286C5.71429 0.830357 5.45536 0.571428 5.14286 0.571428ZM10.8571 5.14286H8.57143C8.25893 5.14286 8 5.40179 8 5.71429V8C8 8.3125 8.25893 8.57143 8.57143 8.57143H10.8571C11.1696 8.57143 11.4286 8.3125 11.4286 8V5.71429C11.4286 5.40179 11.1696 5.14286 10.8571 5.14286ZM13.7143 6.28571H11.7143V7.42857H13.7143V6.28571ZM13.7143 1.71428H6V2.85714H13.7143V1.71428Z" fill="#636363"/>
</svg>
